<?xml version="1.0" encoding="utf-8"?>
<!-- Generator: Adobe Illustrator 14.0.0, SVG Export Plug-In  -->
<!DOCTYPE svg PUBLIC "-//W3C//DTD SVG 1.1//EN" "http://www.w3.org/Graphics/SVG/1.1/DTD/svg11.dtd" [
	<!ENTITY ns_flows "http://ns.adobe.com/Flows/1.0/">
]>
<svg version="1.1"
	 xmlns="http://www.w3.org/2000/svg" xmlns:xlink="http://www.w3.org/1999/xlink" xmlns:a="http://ns.adobe.com/AdobeSVGViewerExtensions/3.0/"
	 x="0px" y="0px" viewBox="-2.209 -2.667 457 82" enable-background="new -2.209 -2.667 457 82"
	 xml:space="preserve">
<defs>
</defs>
<rect y="7.537" fill="#FFFFFF" width="71.484" height="58.497"/>
<path fill="#404041" d="M106.513,9.95c-4.887,0-9.448,0.393-12.968,1.045v49.26c2.542,0.33,6.256,0.656,10.883,0.656
	c8.729,0,15.704-2.023,20.266-6.125c3.843-3.458,7.558-9.71,7.558-20.467c0-9.058-2.801-15.248-7.558-19.154
	C120.523,11.713,114.852,9.95,106.513,9.95z M106.839,53.22c-1.304,0-2.738,0-3.714-0.196V17.899
	c1.042-0.191,2.541-0.388,4.559-0.388c8.928,0,14.467,5.604,14.467,16.944C122.151,47.618,116.025,53.285,106.839,53.22z"/>
<path fill="#404041" d="M153.717,23.375c-10.619,0-16.616,8.995-16.616,19.418c0,11.271,6.386,18.311,17.595,18.311
	c4.498,0,8.731-0.786,11.729-2.082l-1.369-6.651c-2.476,0.849-5.277,1.501-8.859,1.501c-5.215,0-9.647-2.476-9.908-8.668h21.699
	c0.197-1.04,0.263-2.41,0.263-3.841C168.25,29.63,162.515,23.375,153.717,23.375z M146.288,38.49
	c0.261-3.582,2.216-8.404,6.842-8.404c4.757,0,6.257,4.626,6.192,8.404H146.288z"/>
<path fill="#404041" d="M195.181,24.156l-4.56,17.593c-0.784,3.197-1.436,6.129-2.022,9.252h-0.192
	c-0.587-3.123-1.24-6.12-2.022-9.252l-4.756-17.593h-10.362l12.187,36.298h9.317l12.382-36.298H195.181z"/>
<path fill="#404041" d="M4.931,57.127c-1.83,2.273-3.189,4.287-4.225,6.174C0.45,63.759,0,65.123,0,66.034v1.328
	c0,2.263,1.853,4.121,4.122,4.121h63.243c2.267,0,4.119-1.858,4.119-4.121v-48.66C36.826,24.813,15.822,43.58,4.931,57.127z"/>
<polygon fill="#F48120" points="220.351,38.425 236.714,38.425 236.714,30.543 220.351,30.543 220.351,18.423 237.691,18.423 
	237.691,10.343 210.709,10.343 210.709,60.454 238.731,60.454 238.731,52.371 220.351,52.371 "/>
<path fill="#F48120" d="M275.176,24.156h-10.232l-3.262,6.515c-0.912,1.892-1.753,3.848-2.666,5.799h-0.134
	c-0.914-1.819-1.755-3.715-2.8-5.733l-3.45-6.581h-10.686l10.75,17.923L241.68,60.454h10.294l3.393-7.038
	c0.909-1.894,1.823-3.785,2.672-5.734h0.134c0.912,1.949,1.757,3.841,2.731,5.734l3.581,7.038h10.822l-10.948-18.771L275.176,24.156
	z"/>
<path fill="#F48120" d="M299.632,23.375c-4.694,0-8.408,2.022-10.753,5.733h-0.134l-0.455-4.953h-8.407
	c0.132,3.325,0.266,7.167,0.266,11.864v38.968h9.643V56.935h0.132c1.561,2.406,4.628,4.235,8.596,4.235
	c7.364,0,14.924-5.863,14.924-19.226C313.442,30.804,307.58,23.375,299.632,23.375z M296.243,53.606
	c-3.259,0-6.452-2.535-6.452-7.815v-6.779c0-4.361,2.934-7.885,6.648-7.885c4.754,0,7.229,4.694,7.229,11.148
	C303.669,48.789,301.128,53.606,296.243,53.606z"/>
<path fill="#F48120" d="M328.913,30.479h-0.268l-0.386-6.324h-8.277c0.131,3.255,0.26,6.844,0.26,11.339v24.959h9.647V41.684
	c0-6.188,3.316-9.121,7.684-9.121c0.985,0,1.766,0.064,2.482,0.192v-9.186c-0.652-0.131-1.244-0.193-2.153-0.193
	C334.514,23.375,330.607,25.783,328.913,30.479z"/>
<path fill="#F48120" d="M360.07,23.375c-10.62,0-16.615,8.995-16.615,19.418c0,11.271,6.381,18.311,17.593,18.311
	c4.495,0,8.732-0.786,11.734-2.082l-1.371-6.651c-2.476,0.849-5.277,1.501-8.86,1.501c-5.215,0-9.645-2.476-9.91-8.668h21.703
	c0.191-1.04,0.262-2.41,0.262-3.841C374.605,29.63,368.864,23.375,360.07,23.375z M352.641,38.49
	c0.266-3.582,2.219-8.404,6.845-8.404c4.756,0,6.257,4.626,6.193,8.404H352.641z"/>
<path fill="#F48120" d="M394.628,38.561c-4.172-1.763-5.537-2.808-5.537-4.822c0-1.96,1.562-3.455,4.489-3.455
	c2.738,0,5.284,1.039,6.846,1.888l1.826-6.773c-2.086-1.11-5.275-2.022-8.99-2.022c-8.084,0-13.294,4.95-13.294,11.465
	c0,3.979,2.47,7.821,9.252,10.557c3.974,1.694,5.212,2.866,5.212,5.082c0,2.222-1.623,3.654-5.021,3.654
	c-2.991,0-6.581-1.306-8.469-2.416l-1.823,6.974c2.406,1.44,6.26,2.413,10.229,2.413c9.063,0,14.271-4.564,14.271-11.474
	C403.619,44.62,400.753,41.096,394.628,38.561z"/>
<path fill="#F48120" d="M423.513,38.561c-4.171-1.763-5.534-2.808-5.534-4.822c0-1.96,1.561-3.455,4.492-3.455
	c2.733,0,5.281,1.039,6.84,1.888l1.83-6.773c-2.087-1.11-5.28-2.022-8.991-2.022c-8.086,0-13.298,4.95-13.298,11.465
	c0,3.979,2.472,7.821,9.253,10.557c3.973,1.694,5.212,2.866,5.212,5.082c0,2.222-1.624,3.654-5.02,3.654
	c-2.993,0-6.582-1.306-8.469-2.416l-1.823,6.974c2.405,1.44,6.26,2.413,10.229,2.413c9.059,0,14.269-4.564,14.269-11.474
	C432.503,44.62,429.641,41.096,423.513,38.561z"/>
<path fill="#F48120" d="M67.365,0H4.122C1.853,0,0,1.854,0,4.127v37.911c12.517-13.163,34.796-27.543,68.767-31.464
	c0.901-0.101,2.717-0.52,2.717-3.037v-3.41C71.484,1.854,69.632,0,67.365,0z"/>
<path fill="#F48120" d="M439.81,19.155h-1.862v6.511h-1.85v-6.511h-1.843v-1.618h5.555V19.155z"/>
<path fill="#F48120" d="M448.648,25.666h-1.747l-0.113-2.902c-0.042-0.863-0.085-1.945-0.074-3.02h-0.033
	c-0.209,0.978-0.493,2.081-0.713,2.861l-0.801,2.914h-1.396l-0.726-2.892c-0.202-0.779-0.432-1.883-0.604-2.883h-0.03
	c-0.032,1.01-0.083,2.156-0.124,3.03l-0.14,2.892h-1.66l0.559-8.129h2.262l0.648,2.627c0.232,0.965,0.465,1.956,0.624,2.916h0.041
	c0.168-0.938,0.401-1.979,0.643-2.926l0.69-2.617h2.232L448.648,25.666z"/>
</svg>
